<?xml version="1.0" standalone="no"?><!DOCTYPE svg PUBLIC "-//W3C//DTD SVG 1.1//EN" "http://www.w3.org/Graphics/SVG/1.1/DTD/svg11.dtd"><svg t="1640761305960" class="icon" viewBox="0 0 1024 1024" version="1.1" xmlns="http://www.w3.org/2000/svg" p-id="2949" xmlns:xlink="http://www.w3.org/1999/xlink" width="200" height="200"><defs><style type="text/css"></style></defs><path d="M393.386667 469.333333a21.333333 21.333333 0 0 0 21.333333 21.333334h21.333333a21.333333 21.333333 0 0 0 21.333334-21.333334V391.338667a21.333333 21.333333 0 0 0-21.333334-21.333334h-21.333333a21.333333 21.333333 0 0 0-21.333333 21.333334V469.333333zM355.712 601.984c-5.632-12.8 4.565333-25.984 18.517333-25.984h26.026667a24.32 24.32 0 0 1 20.352 12.373333 106.624 106.624 0 0 0 182.784 0 24.32 24.32 0 0 1 20.352-12.373333h26.026667c13.952 0 24.149333 13.226667 18.517333 25.984a170.709333 170.709333 0 0 1-312.576 0zM653.994667 469.333333a21.333333 21.333333 0 0 0 21.333333-21.333333V426.666667a21.333333 21.333333 0 0 0-21.333333-21.333334H576a21.333333 21.333333 0 0 0-21.333333 21.333334v21.333333a21.333333 21.333333 0 0 0 21.333333 21.333333h77.994667z" p-id="2950"></path><path d="M512 853.333333a341.333333 341.333333 0 1 0 0-682.666666 341.333333 341.333333 0 0 0 0 682.666666z m0-64a277.333333 277.333333 0 1 1 0-554.666666 277.333333 277.333333 0 0 1 0 554.666666z" p-id="2951"></path></svg>