<?xml version="1.0" standalone="no"?><!DOCTYPE svg PUBLIC "-//W3C//DTD SVG 1.1//EN" "http://www.w3.org/Graphics/SVG/1.1/DTD/svg11.dtd"><svg t="1639471593033" class="icon" viewBox="0 0 1024 1024" version="1.1" xmlns="http://www.w3.org/2000/svg" p-id="5929" xmlns:xlink="http://www.w3.org/1999/xlink" width="200" height="200"><defs><style type="text/css"></style></defs><path d="M950.233 781.944L595.336 156.792c-17.283-30.357-49.613-49.282-84.592-49.282s-67.307 18.927-84.719 49.282L71.289 781.944a97.24 97.24 0 0 0 0.505 96.894c17.411 30.026 49.518 48.384 84.214 48.384H865.64c34.665 0 66.646-18.356 84.025-48.384 17.503-29.998 17.725-66.774 0.57-96.894z m-401.321-7.057c-10.723 9.619-23.341 14.383-37.755 14.383-14.605 0-27.313-4.764-38.163-14.289-10.85-9.396-16.432-22.677-16.432-39.614 0-14.853 5.204-27.6 15.737-38.007 10.279-10.407 23.024-15.613 38.195-15.613 15.075 0 27.918 5.204 38.637 15.613 10.629 10.407 15.962 23.057 15.962 38.007-0.001 16.811-5.331 29.994-16.18 39.519z m13.75-398.418l-15.516 177.164c-1.639 21.07-5.204 37.216-10.693 48.509-5.581 11.294-14.666 16.843-27.41 16.843-12.964 0-21.92-5.426-26.997-16.276-4.951-10.977-8.675-27.567-10.755-49.74l-11.606-172.037c-2.114-33.434-3.218-57.625-3.218-72.229 0-19.821 5.202-35.296 15.707-46.506 10.345-11.165 24.16-16.732 41.1-16.732 20.439 0 34.316 7.206 41.286 21.385 6.967 14.304 10.535 34.791 10.535 61.692 0 15.597-0.886 31.652-2.429 47.926z" p-id="5930"></path></svg>