<?xml version="1.0" standalone="no"?><!DOCTYPE svg PUBLIC "-//W3C//DTD SVG 1.1//EN" "http://www.w3.org/Graphics/SVG/1.1/DTD/svg11.dtd"><svg t="1640763299276" class="icon" viewBox="0 0 1024 1024" version="1.1" xmlns="http://www.w3.org/2000/svg" p-id="3565" xmlns:xlink="http://www.w3.org/1999/xlink" width="200" height="200"><defs><style type="text/css"></style></defs><path d="M919.6 593.4l-23.1-65c-7.1-20-21.6-36-40.8-45.2-19.2-9.1-40.8-10.3-60.8-3.2l-644 228.9c-41.3 14.7-63 60.3-48.3 101.6l23.1 65c7.1 20 21.6 36 40.8 45.2 10.9 5.2 22.5 7.8 34.2 7.8 9 0 17.9-1.5 26.6-4.6l644-228.9c41.3-14.7 63-60.3 48.3-101.6zM205.9 863.9c-5.3 2-9.9 0.4-12.1-0.7-2.2-1.1-6.3-3.7-8.2-9l-23.1-65c-2.9-8.1 1.5-17.4 9.7-20.3l98.8-35.1c4.8 34.5 17.2 66.9 36.1 94.2l-101.2 35.9z m644-228.9L370.2 805.5c-22.2-24.1-35.5-57.7-37.6-93.6L816.2 540c1.7-0.6 3.4-0.9 5.2-0.9 6.6 0 12.9 4.1 15.2 10.6l23.1 65c2.8 8.1-1.6 17.4-9.8 20.3zM742.1 274.7c25.6 2.4 49.7 4.7 57.7 15.6 3.8 5.2 13.5 27.2-18.9 94.8-7.6 15.9-0.9 34.9 14.9 42.5 4.4 2.1 9.1 3.1 13.8 3.1 11.9 0 23.2-6.7 28.7-18 34.6-72.1 38.8-124.4 12.9-159.9-24.9-34.1-66.5-38-103.2-41.4-30.2-2.8-58.8-5.5-72.5-23.1-9.5-12.1-12.7-30.9-9.4-55.8 2.3-17.4-10-33.4-27.4-35.7-17.5-2.3-33.4 10-35.7 27.4-5.5 42.5 2 77.2 22.4 103.3 30.6 39.2 78.3 43.6 116.7 47.2z" p-id="3566"></path><path d="M645.1 359.2c17.6 1.5 39.4 3.4 44.5 9.9 3.4 4.3 4.3 22.9-16.5 62.9-8.1 15.6-2.1 34.8 13.5 42.9 4.7 2.5 9.7 3.6 14.7 3.6 11.5 0 22.6-6.2 28.3-17.1 11.2-21.5 45.4-87.1 9.9-131.8-22.1-28-57.6-31.1-88.9-33.8-24.2-2.1-47-4.1-57-15.8-6.3-7.4-8.3-19.4-6-35.8 2.5-17.4-9.6-33.5-27-36-17.4-2.6-33.5 9.6-36 27-6.2 43.8 7.7 70.9 20.4 85.9 27 31.7 67.6 35.2 100.1 38.1z" p-id="3567"></path></svg>