<?xml version="1.0" standalone="no"?><!DOCTYPE svg PUBLIC "-//W3C//DTD SVG 1.1//EN" "http://www.w3.org/Graphics/SVG/1.1/DTD/svg11.dtd"><svg t="1640683864337" class="icon" viewBox="0 0 1024 1024" version="1.1" xmlns="http://www.w3.org/2000/svg" p-id="2183" xmlns:xlink="http://www.w3.org/1999/xlink" width="200" height="200"><defs><style type="text/css"></style></defs><path d="M960 316.371l-252.379 67.625-16.906-63.095 108.151-164.228-141.963 38.039-16.906-63.095 252.379-67.625 16.906 63.095-108.151 164.228 141.963-38.039L960 316.371zM304 384s-95.999 16.001-112 160h640c-7.042-63.376-29.58-101.951-52.61-125.288l65.622-17.897C868.47 433.944 888.505 480.074 896 544h-1.804C934.078 574.362 960 623.496 960 678.955v50.087c0 54.621-25.139 103.113-64.001 133.573v65.384c0 17.674-14.326 32-31.999 32h-96c-17.673 0-32-14.326-32-32v-32H288v32c0 17.674-14.326 32-32 32h-96c-17.674 0-32-14.326-32-32v-65.384c-38.861-30.46-64-78.952-64-133.573v-50.087C64 623.496 89.921 574.362 129.803 544H128c22.667-193.333 159.999-224 159.999-224h347.429l18.286 64H304z m511.999 416c44.182 0 80-35.818 80-80.001 0-44.181-35.817-79.999-80-79.999-44.182 0-80 35.818-80 79.999 0.001 44.183 35.818 80.001 80 80.001zM376 784h272c13.255 0 24-10.745 24-24s-10.745-24-24-24H376c-13.255 0-24 10.745-24 24s10.745 24 24 24z m0-80h272c13.255 0 24-10.745 24-24s-10.745-24-24-24H376c-13.255 0-24 10.745-24 24s10.745 24 24 24z m-248.001 15.998c0 44.184 35.817 80.001 80 80.001C252.182 800 288 764.182 288 719.998c0-44.181-35.817-79.999-80.001-79.999-44.183 0-80 35.818-80 79.999z" p-id="2184"></path></svg>