<?xml version="1.0" standalone="no"?><!DOCTYPE svg PUBLIC "-//W3C//DTD SVG 1.1//EN" "http://www.w3.org/Graphics/SVG/1.1/DTD/svg11.dtd"><svg t="1638600949141" class="icon" viewBox="0 0 1024 1024" version="1.1" xmlns="http://www.w3.org/2000/svg" p-id="2378" xmlns:xlink="http://www.w3.org/1999/xlink" width="200" height="200"><defs><style type="text/css"></style></defs><path d="M848 960 176 960C114.112 960 64 909.888 64 848L64 176C64 114.176 114.112 64 176 64l672 0C909.824 64 960 114.176 960 176l0 672C960 909.888 909.824 960 848 960zM232 792l336 0 0-112-336 0L232 792zM232 568l448 0 0-112-448 0L232 568zM792 232l-560 0 0 112 560 0L792 232z" p-id="2379"></path></svg>