<?xml version="1.0" standalone="no"?><!DOCTYPE svg PUBLIC "-//W3C//DTD SVG 1.1//EN" "http://www.w3.org/Graphics/SVG/1.1/DTD/svg11.dtd"><svg t="1640757083325" class="icon" viewBox="0 0 1024 1024" version="1.1" xmlns="http://www.w3.org/2000/svg" p-id="4906" xmlns:xlink="http://www.w3.org/1999/xlink" width="200" height="200"><defs><style type="text/css"></style></defs><path d="M519.2 495.1c-52.2 0-101.3-20.3-138.3-57.3s-57.3-86-57.3-138.3S344 198.3 381 161.3 467 104 519.3 104s101.3 20.3 138.3 57.3c36.9 36.9 57.3 86 57.3 138.3s-20.3 101.3-57.3 138.3c-37 36.9-86.1 57.2-138.4 57.2z m0-356.3c-88.7 0-160.8 72.1-160.8 160.8 0 88.7 72.1 160.8 160.8 160.8 88.7 0 160.8-72.1 160.8-160.8 0-88.7-72.1-160.8-160.8-160.8z" p-id="4907"></path><path d="M745.9 869.7h-65.4v-17.4c0-86.7-70.5-157.3-157.3-157.3S366 765.6 366 852.3v17.4h-65.4c-50.9 0-92.3-41.4-92.3-92.3v-46.5c0-72.2 28.1-140.1 79.2-191.2s119-79.2 191.2-79.2h89.1c72.2 0 140.1 28.1 191.2 79.2 51.1 51.1 79.2 119 79.2 191.2v46.5c0 50.8-41.4 92.3-92.3 92.3z m-31.4-34.8h31.4c31.8 0 57.6-25.8 57.6-57.6v-46.5c0-129.9-105.7-235.7-235.7-235.7h-89.1c-130 0-235.7 105.7-235.7 235.7v46.5c0 31.8 25.8 57.6 57.6 57.6H332c8.8-97.8 91.2-174.6 191.2-174.6s182.5 76.9 191.3 174.6z" p-id="4908"></path><path d="M506.68 665.747l164.814-171.693 25.033 24.03-164.815 171.693zM633.4 869.7H413.1v-17.4c0-60.7 49.4-110.2 110.2-110.2s110.2 49.4 110.2 110.2v17.4z m-183.6-34.8h146.8c-7.9-33.2-37.8-58.1-73.4-58.1s-65.5 24.9-73.4 58.1zM519.2 429c-23 0-41-25.9-41-59s18-59 41-59 41 25.9 41 59c0.1 33.1-18 59-41 59z m0-101.5c-13.3 0-24.6 19.5-24.6 42.5 0 23.1 11.3 42.5 24.6 42.5s24.6-19.5 24.6-42.5c0-23.1-11.2-42.5-24.6-42.5zM440.6 270.5c-19.9 0-36.6-13.8-41.1-32.2-1.3-5.1 2.8-10 8-10 3.8 0 7.1 2.6 8 6.2 2.8 11.2 13 19.6 25.1 19.6s22.3-8.4 25.1-19.6c0.9-3.7 4.2-6.2 8-6.2 5.3 0 9.3 4.9 8 10-4.6 18.4-21.3 32.2-41.1 32.2zM596.6 270.5c-19.9 0-36.6-13.8-41.1-32.2-1.3-5.1 2.8-10 8-10 3.8 0 7.1 2.6 8 6.2 2.8 11.2 13 19.6 25.1 19.6s22.3-8.4 25.1-19.6c0.9-3.7 4.2-6.2 8-6.2 5.3 0 9.3 4.9 8 10-4.6 18.4-21.3 32.2-41.1 32.2z" p-id="4909"></path></svg>